<?xml version="1.0" encoding="UTF-8" standalone="no"?>
<!DOCTYPE svg PUBLIC "-//W3C//DTD SVG 20010904//EN"
              "http://www.w3.org/TR/2001/REC-SVG-20010904/DTD/svg10.dtd">

<svg xmlns="http://www.w3.org/2000/svg"
     width="8.26667in" height="8.26667in"
     viewBox="0 0 2480 2480">
  <path id="Unnamed"
        fill="white" stroke="black" stroke-width="1"
        d="M 0.00,2343.00
           C 0.00,2343.00 143.96,2277.49 264.00,2226.00
             350.04,2195.47 418.50,2167.50 507.00,2119.50
             590.53,2076.98 656.86,2036.85 695.60,1997.25
             727.23,1961.57 753.14,1922.86 771.00,1881.00
             856.50,1734.00 852.00,1663.50 828.00,1554.00
             810.00,1495.50 772.50,1404.00 727.50,1332.00
             687.13,1218.40 669.00,1113.00 669.00,1113.00
             669.00,1113.00 628.50,909.00 694.50,664.50
             731.86,566.06 810.61,479.25 912.00,393.00
             912.00,393.00 1341.00,58.50 1755.00,438.00
             1756.50,441.00 1890.00,522.00 1935.00,831.00
             1966.50,1072.50 2019.70,1408.36 1968.00,1653.00
             1968.00,1653.00 1975.50,1758.00 1860.00,1779.00
             1702.50,1777.50 1678.50,1783.50 1650.00,1797.00
             1572.00,1902.00 1644.00,2061.00 1653.00,2079.00
             1709.67,2128.95 1825.50,2166.00 2176.50,2232.00
             2289.32,2246.46 2431.49,2299.12 2478.00,2355.00
             2478.00,2416.50 2478.00,2478.00 2478.00,2478.00
             2478.00,2478.00 3.00,2472.00 3.00,2472.00" />
</svg>
