<?xml version="1.0" standalone="no"?>
<!DOCTYPE svg PUBLIC "-//W3C//DTD SVG 20010904//EN"
 "http://www.w3.org/TR/2001/REC-SVG-20010904/DTD/svg10.dtd">
<svg version="1.0" xmlns="http://www.w3.org/2000/svg"
 width="700.000000pt" height="700.000000pt" viewBox="0 0 700.000000 700.000000"
 preserveAspectRatio="xMidYMid meet">
<metadata>
Created by potrace 1.14, written by Peter Selinger 2001-2017
</metadata>
<g transform="translate(0.000000,700.000000) scale(0.100000,-0.100000)"
fill="#000000" stroke="none">
<path d="M3617 6274 c-1 -1 -31 -4 -67 -7 -73 -7 -86 -9 -225 -38 -307 -66
-643 -234 -855 -429 -237 -218 -374 -387 -474 -588 -27 -52 -70 -201 -82 -277
-3 -22 -9 -58 -14 -80 -5 -22 -12 -67 -15 -100 -4 -33 -9 -69 -11 -80 -18 -89
-25 -486 -11 -630 10 -108 28 -219 53 -330 3 -11 7 -31 10 -45 5 -28 21 -86
54 -200 11 -41 22 -79 23 -85 15 -57 55 -158 75 -189 28 -44 152 -289 152
-300 0 -3 8 -25 19 -49 10 -23 28 -67 39 -97 11 -30 23 -64 28 -75 10 -28 11
-31 29 -115 26 -117 29 -148 29 -255 -1 -170 -24 -263 -114 -450 -163 -338
-262 -479 -412 -588 -23 -17 -44 -35 -46 -39 -2 -5 -8 -8 -13 -8 -4 0 -39 -20
-76 -44 -37 -24 -140 -82 -228 -128 -206 -110 -350 -179 -510 -243 -22 -9 -88
-34 -147 -56 -86 -32 -375 -156 -613 -264 -134 -60 -163 -73 -187 -83 l-27
-11 4 -168 c2 -92 4 -176 4 -185 1 -15 18 -16 154 -17 315 -1 5226 -13 6012
-15 l820 -2 0 176 c0 174 0 176 -25 201 -42 42 -141 105 -235 149 -84 39 -288
113 -345 124 -14 3 -35 7 -47 10 -58 15 -59 15 -188 37 -33 6 -69 12 -80 14
-11 2 -31 6 -45 9 -25 6 -40 9 -135 26 -27 5 -84 16 -125 25 -41 9 -86 19
-100 21 -14 3 -35 7 -47 9 -13 3 -35 7 -50 10 -16 3 -44 10 -63 15 -19 5 -48
12 -65 15 -16 3 -34 7 -40 9 -5 2 -23 6 -40 10 -323 77 -574 168 -646 232 -8
8 -19 14 -23 14 -35 0 -116 232 -132 375 -14 129 -6 212 28 310 36 103 60 132
124 151 80 23 86 23 329 29 220 5 233 6 270 19 140 49 225 156 240 303 3 34 8
72 11 85 52 259 63 705 30 1143 -10 130 -18 213 -21 235 -2 14 -6 54 -10 90
-4 36 -8 76 -10 90 -2 14 -7 48 -10 75 -4 28 -8 68 -11 90 -3 22 -7 56 -8 75
-2 19 -7 55 -10 80 -7 52 -14 103 -21 163 -6 45 -15 112 -20 138 -2 9 -6 40
-10 70 -5 47 -23 154 -29 184 -2 6 -6 28 -10 50 -18 90 -87 319 -112 367 -8
16 -12 28 -9 28 9 0 -124 255 -143 276 -10 11 -26 32 -36 49 -84 130 -404 386
-621 498 -100 51 -202 95 -265 113 -215 61 -305 75 -503 78 -64 2 -118 2 -120
0z"/>
</g>
</svg>
